# xmcd
#
# Track frame offsets: 
#        150
#        26035
#        47682
#        68362
#        91144
#        109371
#        126640
#        154179
#        177675
#        197601
#        215874
#        233891
#        257681
#        282374
#
# Disc length: 3969 seconds
#
# Revision: 3
# Processed by: cddbd v1.5.2PL0 Copyright (c) Steve Scherf et al.
# Submitted via: ExactAudioCopyFreeDBPlugin 1.0
#
DISCID=d30f7f0e
DTITLE=Various Artist - Amnesia
DYEAR=1900
DGENRE=Pop
TTITLE0=Faithless - Insomnia (Re-Edit)
TTITLE1=Amber - This Is Your Night
TTITLE2=Wink - Higher State Of Consciousness (Original and 96 Remix Re-E
TTITLE2=dit)
TTITLE3=No Mercy - Where Did You Go
TTITLE4=Junior Vazquez - If Madonna Calls
TTITLE5=Kelly Lorena - Brighter Day
TTITLE6=Shaun - Orcha
TTITLE7=Alcatraz - Gimme Love
TTITLE8=Red Velvet - Into The Night
TTITLE9=David Morales - In Da Ghetto Feat. Crystal Waters
TTITLE10=Angelina - Release Me
TTITLE11=Natalia - More Of My Love
TTITLE12=Bootleg - House Me Softly
TTITLE13=JK - My Radio
EXTD=AMLO Corp.\namlo@Oliveira.com
EXTT0=
EXTT1=
EXTT2=
EXTT3=
EXTT4=
EXTT5=
EXTT6=
EXTT7=
EXTT8=
EXTT9=
EXTT10=
EXTT11=
EXTT12=
EXTT13=
PLAYORDER=
